<?xml version="1.0" standalone="no"?>
<!DOCTYPE svg PUBLIC "-//W3C//DTD SVG 20010904//EN"
 "http://www.w3.org/TR/2001/REC-SVG-20010904/DTD/svg10.dtd">
<svg version="1.0" xmlns="http://www.w3.org/2000/svg"
 width="604.000000pt" height="453.000000pt" viewBox="0 0 604.000000 453.000000"
 preserveAspectRatio="xMidYMid meet">
<metadata>
Created by potrace 1.13, written by Peter Selinger 2001-2015
</metadata>
<g transform="translate(0.000000,453.000000) scale(0.100000,-0.100000)"
fill="#000000" stroke="none">
<path d="M2424 4493 c-8 -41 -8 -41 -16 -63 -4 -8 -13 -37 -21 -64 l-15 -48
28 5 c15 4 41 9 56 12 16 3 -24 -12 -89 -35 -128 -44 -180 -73 -239 -135 -77
-81 -84 -155 -59 -612 13 -237 13 -255 -4 -310 -10 -32 -22 -64 -28 -70 -5 -7
-6 -13 -3 -13 4 0 2 -8 -3 -18 -6 -11 -6 -24 0 -33 6 -10 9 -10 9 -1 0 20 3
26 17 40 7 7 14 32 15 55 1 37 2 38 5 9 l4 -32 58 77 c70 95 141 166 244 244
42 33 77 63 77 68 0 4 18 20 41 37 22 16 46 34 53 39 6 6 21 15 31 21 11 7 65
40 120 75 213 135 309 153 495 93 98 -32 220 -88 232 -108 12 -17 9 -26 -7
-26 -8 0 -15 -7 -15 -15 0 -25 -15 -17 -27 15 -6 17 -16 30 -23 30 -6 0 -8 -4
-5 -10 3 -5 2 -10 -4 -10 -5 0 -12 -13 -16 -30 -4 -16 -10 -30 -13 -30 -4 0
-45 7 -91 15 -46 8 -86 13 -88 11 -6 -6 21 -13 82 -22 28 -4 53 -8 58 -10 4
-1 14 -2 22 -3 8 0 15 -8 15 -17 0 -18 7 -18 -152 5 -31 4 -55 4 -52 -1 3 -4
20 -8 37 -8 18 -1 61 -6 96 -13 60 -11 63 -13 48 -29 -13 -13 -24 -14 -54 -7
-21 5 -54 8 -73 8 -24 -1 -12 -5 37 -14 86 -16 97 -21 81 -39 -9 -9 -22 -11
-43 -5 -44 11 -161 22 -153 14 3 -4 21 -9 40 -11 68 -10 141 -24 146 -28 2 -3
1 -9 -3 -15 -8 -14 -65 -14 -65 -1 0 6 -11 10 -25 10 -14 0 -25 -4 -25 -10 0
-5 -7 -7 -16 -3 -12 4 -15 2 -12 -8 3 -8 41 -22 99 -35 52 -11 111 -26 132
-33 66 -22 33 -23 -49 -1 -90 24 -229 38 -204 21 12 -8 7 -11 -22 -11 -20 0
-39 -4 -42 -9 -3 -5 -15 -7 -26 -4 -14 4 -20 0 -20 -10 0 -8 -5 -17 -12 -19
-19 -7 1 -28 27 -28 18 0 23 -5 22 -20 -1 -11 -5 -20 -10 -20 -5 0 -15 -7 -23
-15 -9 -8 -11 -15 -5 -15 6 0 11 -5 11 -11 0 -5 -5 -7 -12 -3 -8 5 -9 2 -5 -9
3 -9 2 -19 -2 -21 -5 -3 -11 -19 -14 -35 -4 -20 -14 -31 -32 -35 -16 -4 -23
-11 -19 -18 4 -7 3 -8 -5 -4 -6 4 -26 -1 -44 -12 -51 -32 -107 -62 -114 -62
-3 0 1 8 8 17 13 16 11 16 -15 -1 -18 -11 -25 -13 -20 -5 6 12 5 12 -9 0 -9
-7 -14 -17 -11 -22 3 -5 2 -8 -3 -7 -14 4 -53 -13 -53 -23 0 -6 8 -6 20 1 11
6 20 7 20 3 0 -5 -10 -13 -22 -18 -13 -6 -23 -15 -23 -21 0 -6 -16 -26 -35
-45 -20 -19 -48 -49 -63 -68 -15 -18 -30 -31 -33 -29 -2 3 -7 43 -10 90 l-6
84 51 51 c48 48 63 73 42 73 -14 0 -32 -26 -23 -34 4 -4 2 -6 -3 -4 -15 4 -54
-29 -96 -82 -51 -64 -57 -78 -25 -52 16 12 31 22 35 22 3 0 5 -24 5 -52 -1
-29 4 -65 11 -80 12 -25 11 -31 -20 -71 -68 -89 -147 -218 -141 -232 3 -8 1
-15 -5 -15 -6 0 -8 -4 -4 -9 3 -5 0 -13 -6 -16 -5 -4 -8 -13 -5 -20 2 -7 -6
-28 -20 -46 -13 -19 -22 -39 -20 -46 3 -7 2 -13 -2 -13 -4 0 -14 -20 -21 -45
-7 -25 -17 -45 -22 -45 -5 0 -6 -7 -2 -15 3 -9 1 -35 -5 -58 -6 -23 -14 -62
-17 -87 -4 -37 -9 -46 -25 -46 -11 0 -20 7 -20 14 0 9 6 12 16 8 12 -5 15 -2
10 9 -3 9 -2 13 4 10 6 -3 10 1 10 9 0 8 -9 18 -21 21 -24 8 -39 -3 -20 -14
17 -11 4 -34 -14 -27 -15 5 -30 -27 -21 -43 4 -5 1 -22 -5 -38 -12 -30 -18
-58 -23 -111 -3 -27 0 -35 18 -42 12 -4 27 -18 33 -31 13 -27 22 -130 11 -122
-5 2 -8 13 -8 24 0 10 -4 19 -10 19 -5 0 -6 7 -3 17 4 11 3 14 -5 9 -6 -4 -21
-2 -32 4 -17 9 -20 8 -20 -12 0 -19 2 -20 11 -8 8 12 9 10 4 -8 -9 -30 24
-129 36 -111 7 9 7 5 3 -13 -3 -16 0 -38 9 -55 31 -59 58 -126 53 -130 -9 -9
-24 7 -31 34 -3 16 -21 69 -40 118 -19 50 -41 121 -50 157 -13 51 -20 64 -29
55 -17 -19 -116 -157 -116 -163 0 -3 -18 -32 -40 -64 -22 -32 -40 -64 -40 -69
0 -6 -3 -11 -7 -11 -20 0 -111 -201 -130 -287 -3 -13 -9 -23 -13 -23 -5 0 -11
10 -13 23 l-4 22 -2 -22 c0 -13 -5 -23 -11 -23 -5 0 -9 3 -9 7 3 19 -2 33 -11
33 -5 0 -7 -7 -4 -15 4 -8 1 -15 -5 -15 -6 0 -11 9 -11 20 0 11 -4 20 -10 20
-22 0 -7 39 45 120 30 47 60 101 66 120 7 19 14 39 17 45 3 5 7 21 9 36 8 72
75 211 124 255 21 18 89 118 89 130 0 3 9 18 19 33 18 25 18 30 4 111 -8 47
-19 89 -23 93 -6 7 -48 -73 -196 -380 -27 -56 -50 -100 -52 -98 -3 3 25 113
66 260 11 39 39 142 62 230 23 88 49 180 57 204 l16 44 12 -37 c21 -60 27 -55
21 14 -11 118 -18 160 -27 165 -12 8 -22 -40 -16 -75 5 -24 4 -28 -10 -23 -13
5 -15 2 -10 -11 5 -11 3 -15 -5 -10 -8 5 -9 -1 -4 -20 5 -20 4 -26 -5 -20 -9
5 -10 1 -7 -14 4 -12 3 -20 -2 -17 -10 6 -21 -50 -14 -72 4 -13 3 -14 -3 -6
-6 9 -16 -10 -30 -60 -31 -104 -37 -154 -9 -72 36 105 30 69 -18 -120 -149
-580 -238 -892 -175 -610 6 28 12 59 13 70 0 11 3 22 7 25 3 3 10 25 16 50 6
25 35 137 66 250 64 240 69 260 63 260 -12 0 -100 -311 -132 -467 -9 -43 -19
-82 -24 -88 -11 -15 -29 -108 -23 -119 3 -5 2 -6 -4 -3 -6 4 -15 -17 -22 -49
-9 -41 -18 -58 -34 -64 -12 -5 -16 -9 -9 -9 10 -1 8 -11 -8 -36 -21 -34 -21
-35 -2 -35 14 0 20 -7 20 -23 -1 -17 -6 -23 -20 -23 -23 1 -57 -69 -57 -121
-1 -40 35 -69 74 -59 14 4 25 2 25 -4 0 -5 -8 -10 -17 -11 -15 0 -15 -2 2 -9
12 -5 15 -9 6 -9 -25 -1 5 -24 36 -28 16 -2 39 -5 53 -6 16 -3 27 -12 31 -28
10 -33 11 -219 2 -219 -5 0 -24 24 -43 52 -41 62 -35 53 -104 144 -45 59 -63
74 -101 86 -25 9 -44 13 -43 9 2 -3 20 -39 41 -79 36 -70 37 -75 20 -88 -10
-7 -22 -13 -28 -14 -5 0 -3 5 5 11 11 8 5 9 -25 4 -30 -4 -36 -3 -25 5 12 9
10 10 -10 8 -14 -1 -32 2 -40 7 -19 12 -120 17 -120 6 0 -4 -14 -8 -30 -9 -60
-2 -91 -22 -125 -84 -11 -18 -12 -18 -32 1 -18 17 -23 18 -33 6 -7 -8 -9 -15
-5 -15 5 0 1 -8 -8 -17 -8 -10 -15 -20 -15 -23 1 -18 -39 -80 -51 -80 -13 0
-13 -2 -2 -9 9 -6 10 -11 2 -15 -27 -17 -21 30 13 98 20 41 36 79 36 86 0 18
90 112 126 131 16 9 47 29 69 43 21 15 48 29 59 32 17 4 38 49 104 221 45 119
81 218 78 220 -2 2 -84 -23 -183 -57 -99 -33 -183 -60 -186 -60 -3 0 -8 12
-10 28 l-4 27 -2 -29 c-1 -36 -47 -73 -101 -81 -15 -2 -99 -32 -232 -81 -65
-25 -89 -49 -73 -74 9 -14 -7 -12 -28 5 -32 23 -16 48 53 83 36 18 56 30 46
27 -59 -18 -85 -16 -96 6 -7 11 -8 25 -3 29 11 11 240 100 276 107 27 5 28 8
24 50 -3 40 -2 44 16 39 10 -2 30 -1 43 4 34 13 31 -6 -3 -24 -26 -14 -26 -15
-6 -16 12 0 31 12 43 27 20 26 21 27 17 5 -4 -18 -2 -22 11 -18 9 2 53 12 97
21 44 10 89 23 100 29 11 7 53 25 93 40 52 20 72 32 68 42 -4 10 3 14 22 15
15 0 21 3 15 6 -24 9 -13 23 13 17 21 -5 25 -4 19 6 -5 9 -4 11 4 6 6 -4 19
-2 28 6 14 11 16 11 8 -1 -6 -10 -4 -12 4 -7 7 5 31 47 55 94 60 123 59 120
28 116 -67 -7 -182 -6 -184 2 -2 5 31 19 72 32 106 33 163 56 167 68 5 14
-105 17 -177 5 -42 -7 -61 -6 -82 5 -32 17 -41 18 -33 4 3 -5 0 -10 -8 -10 -7
0 -23 -9 -36 -21 -42 -39 -32 -11 21 63 7 9 9 21 5 25 -5 4 -12 1 -17 -7 -6
-8 -10 -10 -10 -5 0 6 5 17 10 25 7 12 12 12 21 3 10 -10 17 -9 33 5 21 17 21
17 2 -6 -22 -26 -14 -41 11 -21 11 9 14 10 9 2 -4 -8 -2 -13 6 -12 21 1 49 14
51 24 1 5 8 10 15 11 9 2 10 -1 4 -9 -8 -9 11 -12 75 -14 46 -1 90 -7 98 -13
11 -9 15 -7 21 15 5 19 9 23 15 14 4 -8 3 -19 -3 -26 -6 -8 -8 -16 -6 -19 3
-3 18 16 32 43 25 44 26 48 10 60 -10 7 -24 13 -31 13 -19 0 -17 8 23 138 41
134 39 129 93 241 55 111 54 121 -5 110 -97 -18 -258 -85 -372 -156 -94 -57
-113 -73 -105 -86 3 -5 1 -7 -4 -4 -6 4 -16 0 -23 -8 -7 -8 -16 -15 -21 -15
-4 0 -23 -13 -41 -30 -29 -27 -30 -35 -5 -31 4 0 7 -3 7 -9 0 -5 -6 -10 -12
-10 -7 0 -5 -5 5 -11 23 -13 22 -32 -3 -54 -12 -10 -19 -25 -18 -33 2 -8 -25
-44 -59 -80 -35 -36 -59 -70 -55 -76 4 -7 8 -4 10 7 5 22 25 22 46 -2 21 -23
12 -47 -19 -55 -25 -6 -75 -53 -75 -70 0 -5 10 -18 23 -30 44 -41 40 -71 -13
-81 -13 -2 -37 -9 -54 -14 -119 -36 -168 -14 -116 52 19 24 20 26 3 36 -21 11
-13 15 50 26 21 3 37 12 37 19 0 8 8 17 17 20 15 6 15 8 3 16 -9 5 -19 5 -27
-2 -8 -6 -16 -8 -20 -4 -4 3 2 13 13 21 11 8 14 14 6 15 -17 0 -83 -61 -76
-71 3 -5 -3 -9 -14 -9 -10 0 -40 -22 -66 -50 -47 -50 -48 -72 -1 -25 38 37 30
13 -11 -34 -39 -44 -59 -53 -49 -22 3 10 -1 24 -10 31 -8 7 -15 16 -15 21 0 5
-12 22 -26 38 -23 26 -29 28 -53 18 -14 -6 -34 -17 -43 -25 -10 -9 -18 -12
-18 -8 0 4 -6 1 -14 -6 -31 -32 -252 -164 -289 -173 -15 -4 -27 -12 -27 -19 0
-6 -11 -12 -25 -12 -14 -1 -41 -14 -60 -28 -18 -14 -41 -26 -49 -26 -17 0 -22
-25 -6 -35 10 -6 -23 -44 -54 -60 -10 -5 -18 -13 -17 -17 0 -5 1 -14 1 -21 0
-6 13 -18 30 -25 35 -16 40 -32 7 -25 -17 4 -19 3 -7 -6 12 -8 9 -12 -17 -22
l-33 -11 0 -664 0 -664 636 2 636 3 77 151 c85 168 128 230 246 353 67 70 95
91 177 132 53 27 119 53 145 59 61 14 73 29 62 78 -4 21 -8 53 -8 72 0 19 0
73 0 120 0 59 2 79 9 65 6 -14 9 1 10 55 2 94 8 149 20 169 7 12 9 12 10 2 0
-7 6 -11 14 -8 8 3 44 -1 80 -10 l66 -15 -6 -61 c-3 -34 -9 -75 -14 -92 -5
-16 -12 -50 -15 -75 -3 -25 -10 -72 -16 -105 -14 -88 -9 -119 20 -123 28 -4
159 27 167 39 3 5 9 7 14 4 7 -4 48 4 208 40 22 6 22 7 -18 63 -22 32 -40 61
-40 64 0 3 -15 32 -33 65 -17 32 -47 94 -66 138 -45 109 -64 149 -75 156 -4 4
-4 9 2 13 11 7 8 21 -28 121 -37 101 -55 300 -30 330 7 8 9 15 4 15 -4 0 -3 5
3 11 6 6 30 12 54 13 24 2 52 7 61 11 13 5 24 -4 45 -36 15 -23 43 -57 60 -76
18 -19 37 -49 41 -66 6 -24 14 -33 34 -35 33 -4 75 -46 107 -108 36 -67 87
-99 207 -130 96 -25 102 -26 127 -10 15 11 27 30 32 52 7 39 34 56 113 69 23
4 40 10 38 13 -2 4 49 7 115 8 102 0 120 -2 124 -16 3 -10 15 -21 28 -27 28
-12 106 -10 133 5 35 18 73 85 81 137 7 53 26 77 131 162 23 20 42 41 42 47 0
14 149 166 162 166 5 0 7 3 5 8 -2 4 8 18 21 32 14 14 22 19 18 13 -4 -8 -1
-13 8 -13 9 0 16 -8 16 -19 0 -10 7 -21 15 -25 8 -3 15 -12 15 -21 0 -8 5 -15
10 -15 6 0 10 -12 10 -26 0 -14 4 -23 10 -19 6 3 10 -1 10 -10 0 -9 -4 -13
-10 -10 -5 3 -10 1 -10 -4 0 -6 5 -11 10 -11 6 0 10 -14 10 -31 0 -27 -2 -30
-15 -19 -13 11 -14 5 -9 -49 5 -41 3 -61 -4 -61 -6 0 -14 -17 -18 -37 -4 -21
-10 -42 -14 -48 -5 -5 -11 -32 -16 -60 -6 -45 -5 -49 9 -37 14 12 16 10 14
-14 -1 -20 4 -31 21 -40 13 -6 19 -13 12 -16 -8 -2 -8 -11 -1 -31 13 -32 5
-57 -18 -57 -14 0 -14 -2 -1 -10 13 -9 13 -11 0 -20 -13 -8 -12 -10 3 -10 19
0 24 -36 5 -42 -7 -3 -12 -24 -12 -50 -1 -25 -4 -44 -8 -42 -9 6 -22 -37 -19
-63 2 -16 -3 -23 -14 -23 -10 0 -15 -7 -13 -18 3 -21 -69 -174 -88 -185 -8 -4
-14 -13 -14 -20 0 -7 -15 -25 -34 -41 -19 -15 -40 -41 -46 -57 -7 -16 -17 -26
-23 -22 -6 4 -8 0 -4 -10 4 -10 0 -20 -9 -25 -9 -5 -16 -13 -16 -18 -1 -17
-33 -49 -60 -61 -16 -7 -28 -19 -28 -27 0 -9 -6 -13 -14 -10 -8 3 -23 -8 -37
-28 -45 -63 -70 -86 -115 -103 -25 -9 -43 -19 -41 -21 5 -5 89 28 103 41 7 5
26 21 44 35 56 43 174 144 199 170 16 17 25 21 28 13 3 -7 11 -13 18 -13 16 0
29 35 20 50 -4 6 1 7 12 3 32 -11 34 -15 16 -29 -17 -13 -17 -13 5 -14 14 0
22 -6 23 -17 0 -10 2 -29 4 -43 2 -14 6 -65 10 -115 3 -49 10 -94 15 -99 14
-14 13 -29 -1 -20 -7 4 -7 -1 1 -16 10 -19 10 -24 -4 -32 -21 -12 -21 -32 0
-24 8 3 13 2 12 -2 -2 -4 -10 -19 -18 -34 -10 -22 -11 -33 -2 -53 7 -15 8 -27
2 -30 -6 -4 -10 -23 -10 -44 0 -30 -4 -40 -20 -44 -16 -4 -20 -14 -20 -47 0
-23 -4 -39 -9 -35 -5 3 -16 -3 -23 -12 -17 -23 -70 -52 -84 -46 -6 2 -14 -3
-17 -12 -6 -13 9 -15 108 -15 108 0 117 2 164 29 180 106 361 312 361 410 0
15 7 36 15 47 20 26 19 39 -4 41 -14 1 -18 -3 -14 -14 5 -13 2 -12 -15 2 -11
10 -35 19 -53 20 -32 3 -33 2 -14 -12 14 -11 16 -17 8 -20 -10 -3 -9 -8 2 -20
12 -12 13 -18 4 -29 -7 -8 -14 -12 -18 -9 -3 3 1 11 9 16 12 9 12 10 -3 5 -12
-4 -30 8 -60 40 -36 39 -141 143 -224 221 -29 28 -29 48 1 107 14 27 22 56 19
65 -4 10 0 9 10 -5 12 -16 14 -29 7 -60 -21 -95 -22 -93 18 -103 36 -11 51 -3
52 25 0 6 8 19 19 28 16 15 18 28 14 104 -3 48 -10 95 -15 106 -7 12 -7 16 0
12 16 -10 33 126 19 157 -6 12 -3 17 9 17 23 0 74 -32 74 -46 0 -17 58 -64 79
-64 18 0 66 -47 95 -94 17 -26 17 -30 2 -38 -16 -9 -23 -68 -8 -68 5 0 17 -17
28 -38 10 -20 25 -41 32 -45 19 -12 63 -87 57 -96 -2 -5 3 -8 13 -7 12 1 19
-9 23 -34 4 -19 7 -29 8 -21 2 24 28 -6 35 -42 5 -22 9 -28 15 -19 13 21 29
-8 28 -49 -2 -35 -1 -36 25 -28 15 4 33 11 39 15 9 5 10 -1 5 -20 -3 -14 -9
-38 -12 -52 -5 -19 -3 -25 4 -20 7 4 10 2 7 -7 -3 -7 3 -22 15 -32 11 -10 20
-25 20 -34 0 -11 4 -9 16 7 9 13 13 30 10 39 -7 19 13 89 29 103 9 8 28 -8 69
-56 31 -36 56 -70 56 -76 0 -10 67 -97 84 -109 5 -4 6 -14 3 -23 -4 -10 -1
-16 7 -16 8 0 17 -7 20 -16 3 -8 11 -12 17 -8 8 4 9 3 5 -4 -3 -6 3 -16 15
-22 19 -11 20 -12 3 -24 -10 -7 -26 -11 -36 -8 -25 6 -23 -10 3 -26 12 -8 18
-9 15 -4 -3 5 1 15 8 21 10 9 16 9 21 1 4 -6 1 -9 -5 -8 -7 2 -14 -7 -16 -19
-2 -13 -1 -23 4 -23 4 0 25 -16 46 -35 l40 -34 408 -1 408 0 0 127 0 128 -33
25 c-17 14 -51 38 -74 54 -24 16 -43 30 -43 31 0 2 15 -2 34 -7 19 -6 41 -8
50 -5 21 8 20 45 -1 71 l-18 21 25 -20 c14 -12 33 -27 43 -34 16 -13 17 81 17
1936 l0 1950 -30 0 c-21 0 -27 -3 -18 -9 8 -6 -3 -8 -31 -4 -30 3 -40 1 -30
-5 11 -7 10 -9 -6 -9 -11 0 -85 -5 -165 -12 -80 -6 -164 -12 -187 -12 -23 0
-40 -2 -37 -5 6 -7 -483 -50 -566 -50 -46 0 -52 2 -35 11 19 11 19 11 0 19
-17 6 -16 8 8 8 34 1 36 21 1 21 -19 0 -25 4 -22 18 3 15 27 18 278 23 266 6
353 10 660 29 80 6 153 10 163 10 15 0 17 12 17 111 l0 110 -842 -4 c-493 -2
-906 -9 -994 -15 -112 -9 -209 -9 -370 -1 -121 6 -360 13 -533 16 -258 4 -312
2 -305 -9 4 -7 20 -30 37 -50 l29 -38 -29 -2 c-15 0 -40 -2 -55 -3 -16 -1 -28
1 -29 4 0 3 -2 21 -3 39 -6 53 -20 62 -102 62 -43 0 -74 -4 -74 -10 0 -5 5
-10 10 -10 6 0 20 -11 32 -25 12 -14 28 -23 35 -21 7 3 12 0 10 -7 -1 -7 4
-11 11 -9 6 1 11 -4 10 -10 -2 -8 6 -12 22 -11 22 2 23 2 7 -8 -10 -6 -60 -17
-110 -25 -51 -8 -129 -21 -175 -31 -45 -9 -85 -14 -88 -11 -3 4 6 43 20 88 14
44 26 83 26 86 0 2 -33 4 -74 4 l-74 0 -8 -37z m1260 -13 c33 -5 90 -10 127
-10 75 0 98 -14 75 -45 -11 -16 -22 -17 -87 -12 -76 7 -205 39 -222 56 -15 15
2 32 26 26 12 -2 49 -9 81 -15z m711 -136 c14 -6 14 -9 -4 -28 -10 -11 -21
-32 -23 -46 -2 -14 -9 -24 -16 -22 -6 1 -12 -4 -12 -12 0 -8 -8 -13 -17 -12
-24 4 -83 -27 -61 -32 10 -2 15 -9 11 -18 -3 -9 2 -14 13 -15 14 -1 12 -3 -6
-8 -24 -7 -24 -8 7 -12 23 -4 39 0 53 13 10 10 22 18 25 18 8 0 6 -48 -3 -54
-4 -2 -83 -18 -176 -36 -185 -34 -196 -32 -196 25 0 18 -7 52 -15 75 -8 24
-14 44 -13 45 2 1 42 7 90 13 79 10 178 46 223 81 28 23 91 36 120 25z m393
-89 c17 0 32 -3 32 -7 0 -5 -9 -8 -20 -8 -10 0 -31 -5 -45 -12 -34 -15 -15
-28 42 -28 32 0 41 -3 37 -14 -4 -9 3 -16 18 -19 18 -4 17 -5 -7 -5 -16 0
-108 -8 -203 -17 -96 -9 -176 -15 -178 -12 -11 10 10 37 29 37 11 0 29 8 40
17 18 17 19 17 33 -2 12 -16 14 -17 14 -2 0 13 10 17 43 18 23 1 48 1 56 0 7
-2 10 2 6 8 -3 6 -21 11 -38 12 -27 0 -29 2 -12 9 l20 8 -20 8 c-17 8 -15 10
15 15 19 3 51 4 70 0 19 -3 50 -6 68 -6z m-1710 -1254 c9 1 28 1 42 0 20 -1
22 -3 10 -11 -11 -7 -2 -9 30 -5 25 3 39 2 33 -1 -21 -10 -15 -26 10 -24 12 1
27 1 32 0 6 -1 15 -3 20 -4 54 -12 77 -21 94 -38 12 -10 21 -15 21 -11 0 4 6
1 13 -7 7 -8 18 -15 26 -15 8 0 19 -9 25 -19 18 -32 46 -61 46 -48 0 20 16 13
30 -12 8 -16 18 -22 28 -19 10 4 13 2 8 -5 -5 -8 1 -12 15 -12 19 0 20 -2 8
-17 -13 -15 -12 -15 8 -4 20 10 22 9 16 -5 -5 -13 -3 -15 7 -9 9 5 11 4 6 -3
-4 -7 -16 -12 -27 -12 -11 0 -28 -7 -36 -16 -15 -14 -17 -14 -25 0 -5 9 -17
16 -26 16 -15 0 -15 -2 -2 -10 13 -9 13 -10 0 -11 -8 -1 -18 -1 -22 0 -5 0 -8
-3 -8 -8 0 -5 -20 -15 -44 -22 -25 -7 -42 -17 -40 -21 3 -4 2 -8 -3 -8 -4 0
-16 -12 -26 -26 l-18 -25 30 6 c16 3 33 1 36 -5 3 -5 0 -7 -8 -4 -8 3 -18 1
-22 -5 -4 -7 1 -10 12 -8 10 1 18 5 19 7 0 3 6 16 14 29 11 22 13 22 22 7 5
-9 13 -14 18 -11 4 3 6 -5 4 -17 -2 -13 -2 -17 2 -10 3 6 11 9 16 6 7 -4 8 -2
4 4 -9 15 -1 15 26 1 13 -7 18 -7 14 -1 -3 6 -2 13 4 17 5 3 10 1 10 -6 0 -7
7 -4 16 7 8 10 12 12 8 4 -5 -10 1 -8 16 5 17 14 22 16 18 5 -5 -13 5 -16 51
-17 31 0 74 -6 96 -12 22 -6 53 -13 68 -16 15 -3 25 -10 22 -15 -3 -6 0 -10 7
-10 10 0 9 -3 -1 -9 -12 -8 -9 -11 12 -17 16 -3 26 -11 24 -18 -2 -6 7 -19 20
-30 13 -10 22 -21 19 -24 -3 -2 4 -18 15 -33 12 -18 16 -29 8 -29 -8 0 -8 -5
2 -17 12 -15 12 -16 -1 -8 -9 5 -8 0 4 -13 12 -14 14 -22 7 -22 -7 0 -9 -5 -6
-10 3 -6 -1 -17 -9 -26 -10 -9 -16 -11 -16 -4 0 7 -8 9 -21 5 -14 -5 -19 -3
-15 3 8 13 -67 93 -114 121 -19 11 -48 21 -65 20 l-30 -1 35 -10 c45 -13 75
-38 58 -49 -7 -4 -17 -4 -23 0 -12 10 -137 7 -154 -3 -6 -4 -8 -12 -5 -18 4
-6 10 -6 17 1 24 24 142 -14 191 -63 22 -22 32 -37 22 -33 -9 4 -33 -2 -54
-13 -48 -26 -52 -25 -52 11 0 32 -48 89 -75 89 -56 0 -102 -47 -93 -94 4 -19
1 -26 -10 -26 -8 0 -12 -3 -9 -7 10 -10 70 -12 87 -3 9 5 26 2 40 -5 14 -7 37
-11 52 -8 39 8 98 -5 98 -21 0 -8 11 -24 24 -37 20 -19 22 -27 14 -51 -6 -15
-14 -28 -19 -28 -5 0 -9 -5 -9 -12 0 -6 -19 -30 -42 -52 -23 -23 -41 -43 -40
-46 4 -13 -161 -218 -178 -223 -11 -3 -18 -1 -15 3 3 5 1 11 -5 15 -5 3 -10
13 -10 21 0 19 -59 84 -77 84 -20 0 -16 -28 6 -35 22 -7 47 -42 56 -77 5 -19
1 -27 -20 -36 -15 -7 -32 -9 -38 -5 -7 5 -131 8 -277 8 -241 0 -265 2 -268 17
-2 9 11 31 27 49 30 31 36 53 9 32 -7 -6 -25 -13 -39 -16 -14 -4 -31 -18 -39
-32 -18 -33 -40 -32 -76 6 -17 18 -36 28 -46 26 -10 -3 -29 3 -42 14 -13 10
-29 19 -35 19 -12 0 -31 33 -42 75 -4 16 -11 40 -14 52 -5 14 -2 23 7 26 7 2
1 2 -15 0 -18 -3 -29 0 -33 11 -3 9 -12 16 -19 16 -7 0 -16 7 -19 16 -5 12 -2
15 9 10 9 -3 13 -2 10 4 -3 6 -13 10 -22 10 -20 0 -9 13 15 16 9 2 37 7 62 13
25 5 48 7 52 5 5 -3 8 -1 8 5 0 5 -6 11 -12 13 -7 3 -2 7 10 10 12 4 20 2 16
-3 -8 -13 10 -11 25 4 9 8 12 8 7 0 -5 -8 1 -9 24 0 16 6 26 14 21 17 -4 3
-11 20 -15 39 -3 19 -13 43 -22 52 -15 16 -14 17 8 13 17 -4 14 -1 -9 12 -28
14 -35 14 -50 3 -13 -11 -15 -11 -9 -1 6 11 -3 13 -45 11 -30 -1 -64 -7 -77
-12 -51 -23 -26 21 34 60 11 7 0 6 -27 -3 -27 -9 -62 -31 -84 -54 -40 -40 -55
-49 -55 -29 0 5 5 7 11 3 8 -4 9 0 4 15 -5 17 -3 20 12 14 16 -6 16 -5 4 10
-10 13 -17 15 -27 6 -11 -9 -16 -6 -23 12 -9 26 -4 41 7 22 4 -7 13 -9 21 -4
10 6 8 10 -6 16 -16 6 -14 9 12 21 23 10 26 13 10 14 -15 0 -12 4 13 17 18 8
31 18 28 20 -2 3 -14 -1 -26 -7 -11 -6 -26 -9 -33 -6 -7 2 -4 5 6 5 9 1 17 6
17 11 0 6 11 10 25 10 15 0 25 6 25 15 0 14 51 47 67 43 15 -3 63 14 63 23 0
19 56 8 84 -16 26 -22 30 -23 52 -9 13 9 29 12 36 8 10 -6 9 -3 -1 9 -7 9 -10
17 -6 17 5 0 1 8 -8 18 -10 10 -14 21 -11 25 11 11 -45 35 -93 40 -11 1 -19 5
-16 10 2 4 -13 5 -34 2 -23 -3 -33 -1 -25 4 8 4 13 11 13 15 -3 18 2 26 31 55
18 18 43 34 55 37 13 4 23 11 23 16 0 6 -7 8 -15 4 -8 -3 -15 -1 -15 4 0 6 9
10 19 10 11 0 23 5 27 11 4 6 -1 9 -13 7 -11 -2 -19 2 -19 7 1 6 11 10 23 10
18 -1 20 2 10 14 -9 10 -9 15 -1 18 21 7 3 41 -24 48 l-27 7 24 19 c14 12 31
17 42 14 21 -7 27 10 7 18 -7 3 -3 6 10 6 13 1 32 -4 42 -9 15 -8 18 -7 14 3
-8 21 25 50 41 37 9 -7 15 -8 19 -1 4 6 13 8 21 4 9 -3 15 1 15 11 0 9 8 16
20 16 11 0 20 5 20 11 0 6 7 9 15 5 20 -7 76 14 69 26 -4 6 3 5 15 -2 12 -6
29 -10 39 -9z m2088 -222 c8 -7 14 -7 19 1 3 5 41 10 86 10 l79 0 0 -59 c0
-33 -4 -63 -10 -66 -6 -4 -10 -60 -10 -137 l0 -130 -36 32 c-20 17 -47 36 -61
41 -13 5 -43 22 -66 38 -23 15 -66 33 -95 40 -63 13 -181 14 -237 1 -22 -5
-65 -10 -95 -11 -30 -1 -65 -6 -76 -10 -21 -7 -21 -6 -18 103 2 61 6 113 9
116 3 3 15 7 27 9 12 2 26 8 33 13 6 5 75 9 154 9 79 0 144 1 146 3 9 8 140 6
151 -3z m-3550 -421 c-3 -28 -1 -38 8 -35 19 8 49 -20 42 -39 -4 -11 -13 -14
-31 -10 -22 6 -25 3 -25 -22 0 -16 -3 -32 -7 -35 -10 -11 -42 24 -36 39 4 11
0 14 -18 10 -52 -11 -158 -16 -163 -7 -3 5 10 21 28 35 23 17 37 22 42 15 4
-7 11 -3 18 11 12 23 125 90 139 83 4 -3 6 -23 3 -45z m4118 -1740 c28 -18 60
-40 70 -50 18 -17 18 -17 -17 -11 -29 4 -37 2 -46 -16 -9 -16 -8 -28 4 -52
l16 -30 -28 18 c-51 33 -113 96 -113 114 0 15 43 59 58 59 3 0 28 -15 56 -32z
m-1480 -190 c2 -10 13 -18 24 -18 11 0 22 -7 26 -15 3 -8 13 -15 22 -15 11 0
14 -5 10 -16 -3 -8 -2 -24 4 -34 7 -13 6 -21 -5 -30 -8 -7 -12 -16 -9 -21 3
-5 0 -9 -5 -9 -6 0 -11 -6 -11 -14 0 -8 -10 -22 -22 -30 -12 -9 -18 -16 -13
-16 8 0 -34 -41 -101 -98 -19 -16 -25 -18 -20 -6 5 12 2 15 -11 10 -16 -5 -16
-5 1 8 10 8 15 19 11 25 -3 6 -1 11 4 11 16 0 13 19 -4 37 -12 11 -13 19 -5
28 8 10 7 19 -7 35 -20 23 -21 22 9 52 l21 21 -6 -30 c-6 -30 -5 -31 21 -24
15 4 28 15 28 24 2 13 1 14 -3 2 -2 -8 -11 -15 -20 -15 -12 0 -14 10 -11 50 3
47 -4 65 -15 38 -3 -7 -6 -3 -6 9 -1 12 5 24 12 27 10 5 10 7 0 12 -28 13 -11
24 31 22 33 -2 46 -8 50 -20z"/>
<path d="M0 3103 l0 -69 131 2 c72 2 133 5 136 7 2 3 -5 14 -16 24 -23 22 -21
23 44 26 32 2 34 3 18 15 -10 7 -17 18 -15 23 1 5 -15 7 -39 4 -22 -3 -38 -1
-35 4 3 4 -25 11 -62 14 -37 3 -88 9 -114 13 l-48 7 0 -70z"/>
<path d="M3625 1349 c-4 -6 -13 -8 -20 -5 -8 3 -15 1 -17 -3 -2 -5 -64 -11
-138 -14 -74 -4 -151 -11 -170 -17 -32 -10 -108 -16 -265 -20 l-60 -2 65 -14
c47 -11 71 -12 88 -4 27 12 62 13 62 3 0 -5 14 -8 31 -9 17 -1 25 2 19 6 -7 5
1 10 21 13 19 2 44 7 57 10 13 4 22 1 22 -6 0 -9 3 -8 8 1 5 7 24 14 43 16 19
2 46 7 62 11 17 5 33 3 42 -5 19 -16 20 -44 1 -37 -10 4 -13 1 -9 -9 3 -7 9
-14 14 -14 11 0 23 46 15 59 -3 5 2 8 11 7 26 -4 31 -56 6 -57 -10 0 -13 -3
-5 -6 6 -2 12 -12 12 -21 0 -12 3 -13 12 -4 7 7 23 12 35 12 21 0 23 4 20 33
-2 17 -2 24 0 15 5 -22 5 -22 50 3 49 27 67 45 59 58 -9 14 -63 14 -71 0z"/>
<path d="M2761 510 c-1 -169 60 -321 182 -455 l52 -56 100 3 100 3 -55 20
c-43 16 -74 40 -147 112 -51 50 -93 94 -93 98 0 10 -30 38 -30 28 -1 -28 -43
67 -55 123 -8 38 -23 103 -34 144 l-19 75 -1 -95z"/>
</g>
</svg>
